# xmcd CD database file
#
# Track frame offsets:
#	150
#	13867
#	28152
#	40002
#	60397
#	80877
#	96500
#	109502
#	126432
#	147930
#	162712
#	181180
#
# Disc length: 2660 seconds
#
# Revision: 3
# Processed by: cddbd v1.5.2PL0 Copyright (c) Steve Scherf et al.
# Submitted via: CDex 1.51
#
DISCID=a70a620c
DTITLE=Patty Pravo - I Grandi Successi Originali  [CD 2-2]
DYEAR=2000
DGENRE=Pop
TTITLE0=Nel giardino dell'amore
TTITLE1=All'inferno insieme a te
TTITLE2=Chi ti darà
TTITLE3=Tutt'al più
TTITLE4=La spada nel cuore
TTITLE5=Per te
TTITLE6=Il mio fiore nero  (girlie)
TTITLE7=I giardini di Kensington
TTITLE8=Pazza idea
TTITLE9=La valigia blù
TTITLE10=Io ti venderei
TTITLE11=Per te che mi apri l'universo
EXTD=YEAR: 2000
EXTT0=
EXTT1=
EXTT2=
EXTT3=
EXTT4=
EXTT5=
EXTT6=
EXTT7=
EXTT8=
EXTT9=
EXTT10=
EXTT11=
PLAYORDER=
